<?xml version="1.0" encoding="utf-8"?>
<!-- Generator: Adobe Illustrator 22.0.1, SVG Export Plug-In . SVG Version: 6.00 Build 0)  -->
<svg version="1.1" id="Capa_1" xmlns="http://www.w3.org/2000/svg" xmlns:xlink="http://www.w3.org/1999/xlink" x="0px" y="0px"
	 viewBox="0 0 283.5 58" style="enable-background:new 0 0 283.5 58;" xml:space="preserve">
<style type="text/css">
	.st0{fill:#FFFFFF;}
</style>
<g>
	<path class="st0" d="M247.9,31.3v25h-12.6V34c0-4.5-2.9-7.4-6.7-7.4c-4.7,0-7.8,3.4-7.8,10.1v19.6h-12.7V34c0-4.5-2.9-7.4-6.8-7.4
		c-4.6,0-7.6,3.4-7.6,10.1v19.6H181V16.3h12.7V20c2.7-3,6.6-4.8,11.8-4.8c5.6,0,10.3,2.4,13,6.8c3.2-4.1,7.9-6.8,14.1-6.8
		C241.1,15.1,247.9,21.6,247.9,31.3z"/>
	<path class="st0" d="M29.8,45.1c-1.5,0.6-3.2,1-4.5,1c-3.3,0-5.3-1.7-5.3-5.8V26.4h11.8V16.3H20V4.6H7.2v11.8H0v10.1h7.2v15.1
		c0,10.5,6,15.9,15.9,15.9c4.5,0,7.8-1.3,10.8-2.9L29.8,45.1z"/>
	<path class="st0" d="M63.2,15.1c-5.1,0-9.2,1.8-12.3,5V0.1H38.2v56.2h12.7V37.7c0-7.7,3.3-11.1,8.2-11.1c4.1,0,6.9,3.2,6.9,7.9
		v21.8h12.6V31.8C78.7,21.7,72.5,15.1,63.2,15.1z"/>
	<path class="st0" d="M113.4,42.7c-2.1,3.9-5.6,4.6-8.5,4.6c-4.3,0-7.6-2.9-8.6-7.7h29.3v-3.3c-0.2-13-9.3-21.1-20.6-21.1
		c-11.6,0-21.1,8.6-21.1,21.1c0,12.6,9.5,21.1,21.1,21.1c8.6,0,15.4-3.6,19.1-10.9L113.4,42.7z M105,25.5c3.7,0,6.8,2,8,6.3H96.6
		C97.8,27.7,101.4,25.5,105,25.5z"/>
	<path class="st0" d="M174.1,56.2h-12.7v-3.2c-3.1,2.8-7.2,4.4-12.4,4.4c-10.6,0-19.5-8.5-19.5-21.1c0-12.6,8.9-21.1,19.5-21.1
		c5.2,0,9.3,1.6,12.4,4.4v-3.2h12.7V56.2z M161.3,36.3c0-6.1-4.6-10.3-9.8-10.3c-5.6,0-9.6,4.2-9.6,10.3c0,6.2,4.1,10.3,9.6,10.3
		C156.7,46.6,161.3,42.5,161.3,36.3z"/>
	<path class="st0" d="M283.5,44.5c0,6.5-5.6,12.1-11.9,12.1c-6.4,0-12.1-5.6-12.1-12.1c0-6.4,5.6-11.9,12.1-11.9
		C277.9,32.6,283.5,38.1,283.5,44.5z"/>
</g>
</svg>
